<svg width="200" height="200" viewBox="0 0 200 200" fill="none" xmlns="http://www.w3.org/2000/svg">
<path d="M1.18848 114.812C1.80448 116.576 2.402 118.288 3 120C3.701 121.424 4.38152 122.806 5.06152 124.188C6.0605 125.484 7.03102 126.742 8 128C9.52992 129.381 11.0151 130.722 12.5 132.062C14.37 133.401 16.185 134.701 18 136C20.2099 137.296 22.3551 138.554 24.5 139.812C26.71 140.896 28.855 141.948 31 143C33.9349 143.726 33.9349 143.727 36.8115 144.438C38.2355 144.969 39.618 145.484 41 146V154C44.889 154.298 48.6635 154.586 52.4385 154.875C58.277 154.938 58.2772 154.938 64 155L65 157V165L61 168C57.515 167.554 54.133 167.121 50.75 166.688C47.435 167.474 44.218 168.237 41 169V200H16C7.16344 200 0 192.837 0 184V109C0.403974 110.976 0.796501 112.894 1.18848 114.812ZM200 184C200 192.837 192.837 200 184 200H172V169H150C150.41 165.812 150.41 165.812 150.812 162.688C151.412 158.805 151.412 158.805 152 155C152.568 152.222 152.568 152.222 153.125 149.5C154.072 146.722 154.072 146.722 155 144C156.232 141.556 157.429 139.184 158.625 136.812C160.113 134.496 161.556 132.248 163 130C165.178 127.727 165.178 127.727 167.312 125.5C168.906 124.31 170.453 123.155 172 122C174.525 120.39 174.525 120.39 177 118.812C179.04 117.856 181.02 116.928 183 116C186.124 115.341 189.156 114.702 192.188 114.062C194.844 113.021 197.422 112.011 200 111V184ZM184 0C192.837 0 200 7.16344 200 16V96H172V83H41V96H0V16C0 7.16344 7.16344 0 16 0H184ZM85.25 10.25C78.054 12.144 78.054 12.144 71 14V25C71.149 27.8258 71.2935 30.5687 71.4385 33.3115C71.9695 36.9455 72.484 40.473 73 44C73.999 49.61 74.9685 55.055 75.9385 60.5C77.9994 65.0899 79.999 69.5451 82 74L95.6885 73.5C100.214 71.9701 104.607 70.485 109 69L115 67C114.958 63.388 114.916 59.881 114.875 56.375C114.578 52.847 114.289 49.424 114 46H118C127.945 44.47 137.597 42.985 147.25 41.5C157.025 39.97 166.512 38.485 176 37L174 26C172.99 21.613 172.99 21.6125 172 17.3115C170.99 13.62 170.99 13.6199 170 10H168C163.07 11.381 158.285 12.7215 153.5 14.0615C147.55 15.7405 141.775 17.371 136 19C131.028 20.742 126.201 22.434 121.375 24.125C115.631 25.072 115.631 25.072 110 26C108.513 23.28 107.069 20.64 105.625 18C105.072 14.94 104.536 11.97 104 9L100 8C92.551 9.136 92.551 9.136 85.25 10.25Z" fill="#F54900"/>
</svg>
